<svg viewBox="0 0 48 48" xml:space="preserve" xmlns="http://www.w3.org/2000/svg" enable-background="new 0 0 48 48.00004"><path d="M19.477 36.53a.827.827 0 0 1-.964-.657l-3.707-19.562a.827.827 0 0 1 .657-.964.827.827 0 0 1 .965.657l3.706 19.562a.827.827 0 0 1-.657.964z" fill="#e6dbd8" class="fill-f4f4f4"></path><circle cx="14.995" cy="12.875" transform="rotate(-10.729 14.995 12.875)" r="1.419" fill="#e6dbd8" class="fill-f4f4f4"></circle><path d="M34.35 19.215 20.2 28.471a.163.163 0 0 1-.25-.107l-2.405-12.692a.163.163 0 0 1 .193-.19l16.556 3.437c.143.03.178.217.057.296z" fill="#e6dbd8" class="fill-5f83cf"></path><path d="M19.477 36.53h0a.827.827 0 0 1-.964-.657l-3.707-19.562a.827.827 0 0 1 .657-.964h0a.827.827 0 0 1 .965.657l3.706 19.562a.827.827 0 0 1-.657.964z" fill="none" stroke="#e6dbd8" stroke-width=".7" stroke-linecap="round" stroke-linejoin="round" stroke-miterlimit="10" class="stroke-303030"></path><circle cx="14.995" cy="12.875" transform="rotate(-10.729 14.995 12.875)" r="1.419" fill="none" stroke="#e6dbd8" stroke-width=".7" stroke-linecap="round" stroke-linejoin="round" stroke-miterlimit="10" class="stroke-303030"></circle><path d="M34.35 19.215 20.2 28.471a.163.163 0 0 1-.25-.107l-2.405-12.692a.163.163 0 0 1 .193-.19l16.556 3.437c.143.03.178.217.057.296z" fill="none" stroke="#e6dbd8" stroke-width=".7" stroke-linecap="round" stroke-linejoin="round" stroke-miterlimit="10" class="stroke-303030"></path></svg>